<svg xmlns="http://www.w3.org/2000/svg" xmlns:xlink="http://www.w3.org/1999/xlink" xmlns:lucid="lucid" width="1242" height="563"><g transform="translate(-159 -179)" lucid:page-tab-id="0_0"><path d="M0 0h1500v1000H0z" fill="#fff"/><path d="M980 406a6 6 0 0 1 6-6h148a6 6 0 0 1 6 6v108a6 6 0 0 1-6 6H986a6 6 0 0 1-6-6z" stroke="#282c33" stroke-width="2" fill="#fff"/><use xlink:href="#a" transform="matrix(1,0,0,1,992,412) translate(42.72222222222223 53.77777777777778)"/><path d="M580 406a6 6 0 0 1 6-6h148a6 6 0 0 1 6 6v108a6 6 0 0 1-6 6H586a6 6 0 0 1-6-6z" stroke="#282c33" stroke-width="2" fill="#fff"/><use xlink:href="#b" transform="matrix(1,0,0,1,592,412) translate(58.15432098765432 53.77777777777778)"/><path d="M580 206a6 6 0 0 1 6-6h148a6 6 0 0 1 6 6v108a6 6 0 0 1-6 6H586a6 6 0 0 1-6-6z" stroke="#282c33" stroke-width="2" fill="#fff"/><use xlink:href="#c" transform="matrix(1,0,0,1,592,212) translate(54.41975308641975 53.77777777777778)"/><path d="M580 606a6 6 0 0 1 6-6h148a6 6 0 0 1 6 6v108a6 6 0 0 1-6 6H586a6 6 0 0 1-6-6z" stroke="#282c33" stroke-width="2" fill="#fff"/><use xlink:href="#d" transform="matrix(1,0,0,1,592,612) translate(54.41975308641975 53.77777777777778)"/><path d="M500 460c0 22.1-17.9 40-40 40s-40-17.9-40-40 17.9-40 40-40 40 17.9 40 40zm-68.3-28.3l56.6 56.6m-56.6 0l56.6-56.6M900 460c0 22.1-17.9 40-40 40s-40-17.9-40-40 17.9-40 40-40 40 17.9 40 40zm-68.3-28.3l56.6 56.6m-56.6 0l56.6-56.6" stroke="#282c33" stroke-width="2" fill="#fff"/><path d="M501.5 460h61.12" stroke="#3a414a" fill="none"/><path d="M501.5 460.48h-.53l.03-.47-.02-.48h.53z" stroke="#3a414a" stroke-width=".05" fill="#3a414a"/><path d="M577.38 460l-14.26 4.63v-9.26z" stroke="#3a414a" fill="#3a414a"/><path d="M341.5 460h61.12" stroke="#3a414a" fill="none"/><path d="M341.5 460.48h-.53l.03-.47-.02-.48h.53z" stroke="#3a414a" stroke-width=".05" fill="#3a414a"/><path d="M417.38 460l-14.26 4.63v-9.26z" stroke="#3a414a" fill="#3a414a"/><path d="M501.5 460H534a6 6 0 0 0 6-6V266a6 6 0 0 1 6-6h16.62" stroke="#3a414a" fill="none"/><path d="M501.5 460.48h-.53l.03-.47-.02-.48h.53z" stroke="#3a414a" stroke-width=".05" fill="#3a414a"/><path d="M577.38 260l-14.26 4.63v-9.26z" stroke="#3a414a" fill="#3a414a"/><path d="M501.5 460H534a6 6 0 0 1 6 6v188a6 6 0 0 0 6 6h16.62" stroke="#3a414a" fill="none"/><path d="M501.5 460.48h-.53l.03-.47-.02-.48h.53z" stroke="#3a414a" stroke-width=".05" fill="#3a414a"/><path d="M577.38 660l-14.26 4.63v-9.26z" stroke="#3a414a" fill="#3a414a"/><path d="M741.5 260H854a6 6 0 0 1 6 6v136.62" stroke="#3a414a" fill="none"/><path d="M741.5 260.48h-.5v-.96h.5z" stroke="#3a414a" stroke-width=".05" fill="#3a414a"/><path d="M860 417.38l-4.63-14.26h9.26z" stroke="#3a414a" fill="#3a414a"/><path d="M741.5 660H854a6 6 0 0 0 6-6V517.38" stroke="#3a414a" fill="none"/><path d="M741.5 660.48h-.5v-.96h.5z" stroke="#3a414a" stroke-width=".05" fill="#3a414a"/><path d="M860 502.62l4.63 14.26h-9.26z" stroke="#3a414a" fill="#3a414a"/><path d="M741.5 462.4h61.2" stroke="#3a414a" fill="none"/><path d="M741.5 462.88h-.5v-.95h.5z" stroke="#3a414a" stroke-width=".05" fill="#3a414a"/><path d="M817.47 462.4l-14.27 4.64v-9.28z" stroke="#3a414a" fill="#3a414a"/><path d="M901.5 460h61.12" stroke="#3a414a" fill="none"/><path d="M901.5 460.48h-.53l.03-.47-.02-.48h.53z" stroke="#3a414a" stroke-width=".05" fill="#3a414a"/><path d="M977.38 460l-14.26 4.63v-9.26z" stroke="#3a414a" fill="#3a414a"/><path d="M1141.5 460h61.12" stroke="#3a414a" fill="none"/><path d="M1141.5 460.48h-.5v-.96h.5z" stroke="#3a414a" stroke-width=".05" fill="#3a414a"/><path d="M1217.38 460l-14.26 4.63v-9.26z" stroke="#3a414a" fill="#3a414a"/><path d="M1141.5 460h33.5a6 6 0 0 1 6 6v268a6 6 0 0 1-6 6H466a6 6 0 0 1-6-6V517.38" stroke="#3a414a" fill="none"/><path d="M1141.5 460.48h-.5v-.96h.5z" stroke="#3a414a" stroke-width=".05" fill="#3a414a"/><path d="M460 502.62l4.63 14.26h-9.26z" stroke="#3a414a" fill="#3a414a"/><path d="M300 420c22.1 0 40 17.9 40 40s-17.9 40-40 40h-80c-22.1 0-40-17.9-40-40s17.9-40 40-40z" stroke="#282c33" stroke-width="2" fill="#fff"/><use xlink:href="#e" transform="matrix(1,0,0,1,185,425) translate(50.308641975308646 39.65277777777778)"/><path d="M1340 420c22.1 0 40 17.9 40 40s-17.9 40-40 40h-80c-22.1 0-40-17.9-40-40s17.9-40 40-40z" stroke="#282c33" stroke-width="2" fill="#fff"/><use xlink:href="#f" transform="matrix(1,0,0,1,1225,425) translate(41.66666666666667 39.65277777777778)"/><defs><path fill="#3a414a" d="M30-248c87 1 191-15 191 75 0 78-77 80-158 76V0H30v-248zm33 125c57 0 124 11 124-50 0-59-68-47-124-48v98" id="g"/><path fill="#3a414a" d="M24 0v-261h32V0H24" id="h"/><path fill="#3a414a" d="M141-36C126-15 110 5 73 4 37 3 15-17 15-53c-1-64 63-63 125-63 3-35-9-54-41-54-24 1-41 7-42 31l-33-3c5-37 33-52 76-52 45 0 72 20 72 64v82c-1 20 7 32 28 27v20c-31 9-61-2-59-35zM48-53c0 20 12 33 32 33 41-3 63-29 60-74-43 2-92-5-92 41" id="i"/><path fill="#3a414a" d="M117-194c89-4 53 116 60 194h-32v-121c0-31-8-49-39-48C34-167 62-67 57 0H25l-1-190h30c1 10-1 24 2 32 11-22 29-35 61-36" id="j"/><path fill="#3a414a" d="M59-47c-2 24 18 29 38 22v24C64 9 27 4 27-40v-127H5v-23h24l9-43h21v43h35v23H59v120" id="k"/><g id="a"><use transform="matrix(0.06172839506172839,0,0,0.06172839506172839,0,0)" xlink:href="#g"/><use transform="matrix(0.06172839506172839,0,0,0.06172839506172839,14.814814814814813,0)" xlink:href="#h"/><use transform="matrix(0.06172839506172839,0,0,0.06172839506172839,19.691358024691354,0)" xlink:href="#i"/><use transform="matrix(0.06172839506172839,0,0,0.06172839506172839,32.03703703703703,0)" xlink:href="#j"/><use transform="matrix(0.06172839506172839,0,0,0.06172839506172839,44.38271604938271,0)" xlink:href="#k"/></g><path fill="#3a414a" d="M194 0L95-120 63-95V0H30v-248h33v124l119-124h40L117-140 236 0h-42" id="l"/><path fill="#3a414a" d="M24-231v-30h32v30H24zM24 0v-190h32V0H24" id="m"/><g id="b"><use transform="matrix(0.06172839506172839,0,0,0.06172839506172839,0,0)" xlink:href="#l"/><use transform="matrix(0.06172839506172839,0,0,0.06172839506172839,14.814814814814813,0)" xlink:href="#m"/></g><path fill="#3a414a" d="M115-194c55 1 70 41 70 98S169 2 115 4C84 4 66-9 55-30l1 105H24l-1-265h31l2 30c10-21 28-34 59-34zm-8 174c40 0 45-34 45-75s-6-73-45-74c-42 0-51 32-51 76 0 43 10 73 51 73" id="n"/><g id="c"><use transform="matrix(0.06172839506172839,0,0,0.06172839506172839,0,0)" xlink:href="#l"/><use transform="matrix(0.06172839506172839,0,0,0.06172839506172839,14.814814814814813,0)" xlink:href="#n"/></g><path fill="#3a414a" d="M85-194c31 0 48 13 60 33l-1-100h32l1 261h-30c-2-10 0-23-3-31C134-8 116 4 85 4 32 4 16-35 15-94c0-66 23-100 70-100zm9 24c-40 0-46 34-46 75 0 40 6 74 45 74 42 0 51-32 51-76 0-42-9-74-50-73" id="o"/><g id="d"><use transform="matrix(0.06172839506172839,0,0,0.06172839506172839,0,0)" xlink:href="#l"/><use transform="matrix(0.06172839506172839,0,0,0.06172839506172839,14.814814814814813,0)" xlink:href="#o"/></g><path fill="#3a414a" d="M33 0v-248h34V0H33" id="p"/><path fill="#3a414a" d="M84 4C-5 8 30-112 23-190h32v120c0 31 7 50 39 49 72-2 45-101 50-169h31l1 190h-30c-1-10 1-25-2-33-11 22-28 36-60 37" id="q"/><g id="e"><use transform="matrix(0.06172839506172839,0,0,0.06172839506172839,0,0)" xlink:href="#p"/><use transform="matrix(0.06172839506172839,0,0,0.06172839506172839,6.172839506172839,0)" xlink:href="#j"/><use transform="matrix(0.06172839506172839,0,0,0.06172839506172839,18.51851851851852,0)" xlink:href="#n"/><use transform="matrix(0.06172839506172839,0,0,0.06172839506172839,30.864197530864196,0)" xlink:href="#q"/><use transform="matrix(0.06172839506172839,0,0,0.06172839506172839,43.20987654320987,0)" xlink:href="#k"/></g><path fill="#3a414a" d="M140-251c81 0 123 46 123 126C263-46 219 4 140 4 59 4 17-45 17-125s42-126 123-126zm0 227c63 0 89-41 89-101s-29-99-89-99c-61 0-89 39-89 99S79-25 140-24" id="r"/><g id="f"><use transform="matrix(0.06172839506172839,0,0,0.06172839506172839,0,0)" xlink:href="#r"/><use transform="matrix(0.06172839506172839,0,0,0.06172839506172839,17.28395061728395,0)" xlink:href="#q"/><use transform="matrix(0.06172839506172839,0,0,0.06172839506172839,29.629629629629626,0)" xlink:href="#k"/><use transform="matrix(0.06172839506172839,0,0,0.06172839506172839,35.80246913580247,0)" xlink:href="#n"/><use transform="matrix(0.06172839506172839,0,0,0.06172839506172839,48.148148148148145,0)" xlink:href="#q"/><use transform="matrix(0.06172839506172839,0,0,0.06172839506172839,60.49382716049382,0)" xlink:href="#k"/></g></defs></g></svg>