<svg xmlns="http://www.w3.org/2000/svg" xmlns:lucid="lucid" width="1802" height="742"><g lucid:page-tab-id="0_0"><path d="M11-109h2000V891H11z" fill="#fff"/><path d="M651 131c0 44.18-35.82 80-80 80s-80-35.82-80-80 35.82-80 80-80 80 35.82 80 80zM651 291c0 44.18-35.82 80-80 80s-80-35.82-80-80 35.82-80 80-80 80 35.82 80 80zM651 451c0 44.18-35.82 80-80 80s-80-35.82-80-80 35.82-80 80-80 80 35.82 80 80zM651 611c0 44.18-35.82 80-80 80s-80-35.82-80-80 35.82-80 80-80 80 35.82 80 80zM971 211c0 44.18-35.82 80-80 80s-80-35.82-80-80 35.82-80 80-80 80 35.82 80 80zM971 371c0 44.18-35.82 80-80 80s-80-35.82-80-80 35.82-80 80-80 80 35.82 80 80zM971 531c0 44.18-35.82 80-80 80s-80-35.82-80-80 35.82-80 80-80 80 35.82 80 80zM1291 451c0 44.18-35.82 80-80 80s-80-35.82-80-80 35.82-80 80-80 80 35.82 80 80zM1291 291c0 44.18-35.82 80-80 80s-80-35.82-80-80 35.82-80 80-80 80 35.82 80 80zM1291 131c0 44.18-35.82 80-80 80s-80-35.82-80-80 35.82-80 80-80 80 35.82 80 80zM1291 611c0 44.18-35.82 80-80 80s-80-35.82-80-80 35.82-80 80-80 80 35.82 80 80zM1591 371c0 44.18-35.82 80-80 80s-80-35.82-80-80 35.82-80 80-80 80 35.82 80 80zM351 371c0 44.18-35.82 80-80 80s-80-35.82-80-80 35.82-80 80-80 80 35.82 80 80z" stroke="#282c33" stroke-width="10" fill="#fff"/><path d="M661 131h64a6 6 0 0 1 6 6v68a6 6 0 0 0 6 6h33.55" stroke="#3a414a" stroke-width="10" fill="none"/><path d="M661.13 135.97h-5.28l.15-4.9v-.85l-.17-4.2h5.3z" stroke="#3a414a" stroke-width=".05" fill="#3a414a"/><path d="M789.82 211l-14.27 4.63v-9.26z" stroke="#3a414a" stroke-width="10" fill="#3a414a"/><path d="M661 291h64a6 6 0 0 0 6-6v-68a6 6 0 0 1 6-6h33.55" stroke="#3a414a" stroke-width="10" fill="none"/><path d="M661.13 295.98h-5.28l.15-4.9v-.87l-.17-4.18h5.3z" stroke="#3a414a" stroke-width=".05" fill="#3a414a"/><path d="M789.82 211l-14.27 4.63v-9.26z" stroke="#3a414a" stroke-width="10" fill="#3a414a"/><path d="M661 451h64a6 6 0 0 0 6-6V217a6 6 0 0 1 6-6h33.55" stroke="#3a414a" stroke-width="10" fill="none"/><path d="M661.13 455.98h-5.28l.15-4.9v-.86l-.17-4.2h5.3z" stroke="#3a414a" stroke-width=".05" fill="#3a414a"/><path d="M789.82 211l-14.27 4.63v-9.26z" stroke="#3a414a" stroke-width="10" fill="#3a414a"/><path d="M661 611h64a6 6 0 0 0 6-6V217a6 6 0 0 1 6-6h33.55" stroke="#3a414a" stroke-width="10" fill="none"/><path d="M661.13 615.98h-5.28l.15-4.9v-.87l-.17-4.18h5.3z" stroke="#3a414a" stroke-width=".05" fill="#3a414a"/><path d="M789.82 211l-14.27 4.63v-9.26z" stroke="#3a414a" stroke-width="10" fill="#3a414a"/><path d="M661 291h64a6 6 0 0 1 6 6v68a6 6 0 0 0 6 6h33.55" stroke="#3a414a" stroke-width="10" fill="none"/><path d="M661.13 295.98h-5.28l.15-4.9v-.87l-.17-4.18h5.3z" stroke="#3a414a" stroke-width=".05" fill="#3a414a"/><path d="M789.82 371l-14.27 4.63v-9.26z" stroke="#3a414a" stroke-width="10" fill="#3a414a"/><path d="M661 451h64a6 6 0 0 0 6-6v-68a6 6 0 0 1 6-6h33.55" stroke="#3a414a" stroke-width="10" fill="none"/><path d="M661.13 455.98h-5.28l.15-4.9v-.86l-.17-4.2h5.3z" stroke="#3a414a" stroke-width=".05" fill="#3a414a"/><path d="M789.82 371l-14.27 4.63v-9.26z" stroke="#3a414a" stroke-width="10" fill="#3a414a"/><path d="M661 611h64a6 6 0 0 0 6-6V377a6 6 0 0 1 6-6h33.55" stroke="#3a414a" stroke-width="10" fill="none"/><path d="M661.13 615.98h-5.28l.15-4.9v-.87l-.17-4.18h5.3z" stroke="#3a414a" stroke-width=".05" fill="#3a414a"/><path d="M789.82 371l-14.27 4.63v-9.26z" stroke="#3a414a" stroke-width="10" fill="#3a414a"/><path d="M661 451h64a6 6 0 0 0 6-6V217a6 6 0 0 1 6-6h33.55" stroke="#3a414a" stroke-width="10" fill="none"/><path d="M661.13 455.98h-5.28l.15-4.9v-.86l-.17-4.2h5.3z" stroke="#3a414a" stroke-width=".05" fill="#3a414a"/><path d="M789.82 211l-14.27 4.63v-9.26z" stroke="#3a414a" stroke-width="10" fill="#3a414a"/><path d="M661 451h64a6 6 0 0 0 6-6v-68a6 6 0 0 1 6-6h33.55" stroke="#3a414a" stroke-width="10" fill="none"/><path d="M661.13 455.98h-5.28l.15-4.9v-.86l-.17-4.2h5.3z" stroke="#3a414a" stroke-width=".05" fill="#3a414a"/><path d="M789.82 371l-14.27 4.63v-9.26z" stroke="#3a414a" stroke-width="10" fill="#3a414a"/><path d="M661 451h64a6 6 0 0 1 6 6v68a6 6 0 0 0 6 6h33.55" stroke="#3a414a" stroke-width="10" fill="none"/><path d="M661.13 455.98h-5.28l.15-4.9v-.86l-.17-4.2h5.3z" stroke="#3a414a" stroke-width=".05" fill="#3a414a"/><path d="M789.82 531l-14.27 4.63v-9.26z" stroke="#3a414a" stroke-width="10" fill="#3a414a"/><path d="M661 611h64a6 6 0 0 0 6-6v-68a6 6 0 0 1 6-6h33.55" stroke="#3a414a" stroke-width="10" fill="none"/><path d="M661.13 615.98h-5.28l.15-4.9v-.87l-.17-4.18h5.3z" stroke="#3a414a" stroke-width=".05" fill="#3a414a"/><path d="M789.82 531l-14.27 4.63v-9.26z" stroke="#3a414a" stroke-width="10" fill="#3a414a"/><path d="M661 611h64a6 6 0 0 0 6-6V377a6 6 0 0 1 6-6h33.55" stroke="#3a414a" stroke-width="10" fill="none"/><path d="M661.13 615.98h-5.28l.15-4.9v-.87l-.17-4.18h5.3z" stroke="#3a414a" stroke-width=".05" fill="#3a414a"/><path d="M789.82 371l-14.27 4.63v-9.26z" stroke="#3a414a" stroke-width="10" fill="#3a414a"/><path d="M661 611h64a6 6 0 0 0 6-6V217a6 6 0 0 1 6-6h33.55" stroke="#3a414a" stroke-width="10" fill="none"/><path d="M661.13 615.98h-5.28l.15-4.9v-.87l-.17-4.18h5.3z" stroke="#3a414a" stroke-width=".05" fill="#3a414a"/><path d="M789.82 211l-14.27 4.63v-9.26z" stroke="#3a414a" stroke-width="10" fill="#3a414a"/><path d="M361 371h54a6 6 0 0 0 6-6V137a6 6 0 0 1 6-6h23.55" stroke="#3a414a" stroke-width="10" fill="none"/><path d="M361.13 375.98h-5.28l.15-4.9v-.87l-.17-4.18h5.3z" stroke="#3a414a" stroke-width=".05" fill="#3a414a"/><path d="M469.82 131l-14.27 4.63v-9.26z" stroke="#3a414a" stroke-width="10" fill="#3a414a"/><path d="M361 371h54a6 6 0 0 0 6-6v-68a6 6 0 0 1 6-6h23.55" stroke="#3a414a" stroke-width="10" fill="none"/><path d="M361.13 375.98h-5.28l.15-4.9v-.87l-.17-4.18h5.3z" stroke="#3a414a" stroke-width=".05" fill="#3a414a"/><path d="M469.82 291l-14.27 4.63v-9.26z" stroke="#3a414a" stroke-width="10" fill="#3a414a"/><path d="M361 371h54a6 6 0 0 1 6 6v68a6 6 0 0 0 6 6h23.55" stroke="#3a414a" stroke-width="10" fill="none"/><path d="M361.13 375.98h-5.28l.15-4.9v-.87l-.17-4.18h5.3z" stroke="#3a414a" stroke-width=".05" fill="#3a414a"/><path d="M469.82 451l-14.27 4.63v-9.26z" stroke="#3a414a" stroke-width="10" fill="#3a414a"/><path d="M361 371h54a6 6 0 0 1 6 6v228a6 6 0 0 0 6 6h23.55" stroke="#3a414a" stroke-width="10" fill="none"/><path d="M361.13 375.98h-5.28l.15-4.9v-.87l-.17-4.18h5.3z" stroke="#3a414a" stroke-width=".05" fill="#3a414a"/><path d="M469.82 611l-14.27 4.63v-9.26z" stroke="#3a414a" stroke-width="10" fill="#3a414a"/><path d="M981 531h64a6 6 0 0 1 6 6v68a6 6 0 0 0 6 6h33.55" stroke="#3a414a" stroke-width="10" fill="none"/><path d="M981.13 535.98h-5.28l.15-4.9v-.87l-.17-4.18h5.3z" stroke="#3a414a" stroke-width=".05" fill="#3a414a"/><path d="M1109.82 611l-14.27 4.63v-9.26z" stroke="#3a414a" stroke-width="10" fill="#3a414a"/><path d="M981 531h64a6 6 0 0 0 6-6v-68a6 6 0 0 1 6-6h33.55" stroke="#3a414a" stroke-width="10" fill="none"/><path d="M981.13 535.98h-5.28l.15-4.9v-.87l-.17-4.18h5.3z" stroke="#3a414a" stroke-width=".05" fill="#3a414a"/><path d="M1109.82 451l-14.27 4.63v-9.26z" stroke="#3a414a" stroke-width="10" fill="#3a414a"/><path d="M981 531h64a6 6 0 0 0 6-6V297a6 6 0 0 1 6-6h33.55" stroke="#3a414a" stroke-width="10" fill="none"/><path d="M981.13 535.98h-5.28l.15-4.9v-.87l-.17-4.18h5.3z" stroke="#3a414a" stroke-width=".05" fill="#3a414a"/><path d="M1109.82 291l-14.27 4.63v-9.26z" stroke="#3a414a" stroke-width="10" fill="#3a414a"/><path d="M981 531h64a6 6 0 0 0 6-6V137a6 6 0 0 1 6-6h33.55" stroke="#3a414a" stroke-width="10" fill="none"/><path d="M981.13 535.98h-5.28l.15-4.9v-.87l-.17-4.18h5.3z" stroke="#3a414a" stroke-width=".05" fill="#3a414a"/><path d="M1109.82 131l-14.27 4.63v-9.26z" stroke="#3a414a" stroke-width="10" fill="#3a414a"/><path d="M981 371h64a6 6 0 0 1 6 6v228a6 6 0 0 0 6 6h33.55" stroke="#3a414a" stroke-width="10" fill="none"/><path d="M981.13 375.98h-5.28l.15-4.9v-.87l-.17-4.18h5.3z" stroke="#3a414a" stroke-width=".05" fill="#3a414a"/><path d="M1109.82 611l-14.27 4.63v-9.26z" stroke="#3a414a" stroke-width="10" fill="#3a414a"/><path d="M981 371h64a6 6 0 0 1 6 6v68a6 6 0 0 0 6 6h33.55" stroke="#3a414a" stroke-width="10" fill="none"/><path d="M981.13 375.98h-5.28l.15-4.9v-.87l-.17-4.18h5.3z" stroke="#3a414a" stroke-width=".05" fill="#3a414a"/><path d="M1109.82 451l-14.27 4.63v-9.26z" stroke="#3a414a" stroke-width="10" fill="#3a414a"/><path d="M981 371h64a6 6 0 0 0 6-6v-68a6 6 0 0 1 6-6h33.55" stroke="#3a414a" stroke-width="10" fill="none"/><path d="M981.13 375.98h-5.28l.15-4.9v-.87l-.17-4.18h5.3z" stroke="#3a414a" stroke-width=".05" fill="#3a414a"/><path d="M1109.82 291l-14.27 4.63v-9.26z" stroke="#3a414a" stroke-width="10" fill="#3a414a"/><path d="M981 371h64a6 6 0 0 0 6-6v-68a6 6 0 0 1 6-6h33.55" stroke="#3a414a" stroke-width="10" fill="none"/><path d="M981.13 375.98h-5.28l.15-4.9v-.87l-.17-4.18h5.3z" stroke="#3a414a" stroke-width=".05" fill="#3a414a"/><path d="M1109.82 291l-14.27 4.63v-9.26z" stroke="#3a414a" stroke-width="10" fill="#3a414a"/><path d="M981 371h64a6 6 0 0 0 6-6V137a6 6 0 0 1 6-6h33.55" stroke="#3a414a" stroke-width="10" fill="none"/><path d="M981.13 375.98h-5.28l.15-4.9v-.87l-.17-4.18h5.3z" stroke="#3a414a" stroke-width=".05" fill="#3a414a"/><path d="M1109.82 131l-14.27 4.63v-9.26z" stroke="#3a414a" stroke-width="10" fill="#3a414a"/><path d="M981 211h64a6 6 0 0 0 6-6v-68a6 6 0 0 1 6-6h33.55" stroke="#3a414a" stroke-width="10" fill="none"/><path d="M981.13 215.98h-5.28l.15-4.9v-.87l-.17-4.18h5.3z" stroke="#3a414a" stroke-width=".05" fill="#3a414a"/><path d="M1109.82 131l-14.27 4.63v-9.26z" stroke="#3a414a" stroke-width="10" fill="#3a414a"/><path d="M981 211h64a6 6 0 0 1 6 6v68a6 6 0 0 0 6 6h33.55" stroke="#3a414a" stroke-width="10" fill="none"/><path d="M981.13 215.98h-5.28l.15-4.9v-.87l-.17-4.18h5.3z" stroke="#3a414a" stroke-width=".05" fill="#3a414a"/><path d="M1109.82 291l-14.27 4.63v-9.26z" stroke="#3a414a" stroke-width="10" fill="#3a414a"/><path d="M981 211h64a6 6 0 0 1 6 6v228a6 6 0 0 0 6 6h33.55" stroke="#3a414a" stroke-width="10" fill="none"/><path d="M981.13 215.98h-5.28l.15-4.9v-.87l-.17-4.18h5.3z" stroke="#3a414a" stroke-width=".05" fill="#3a414a"/><path d="M1109.82 451l-14.27 4.63v-9.26z" stroke="#3a414a" stroke-width="10" fill="#3a414a"/><path d="M981 211h64a6 6 0 0 1 6 6v388a6 6 0 0 0 6 6h33.55" stroke="#3a414a" stroke-width="10" fill="none"/><path d="M981.13 215.98h-5.28l.15-4.9v-.87l-.17-4.18h5.3z" stroke="#3a414a" stroke-width=".05" fill="#3a414a"/><path d="M1109.82 611l-14.27 4.63v-9.26z" stroke="#3a414a" stroke-width="10" fill="#3a414a"/><path d="M1300.8 124.9h54.1a6 6 0 0 1 6 6V365a6 6 0 0 0 6 6h23.65" stroke="#3a414a" stroke-width="10" fill="none"/><path d="M1300.9 129.86H1296l-.2-4.95-.5-5h5.63z" stroke="#3a414a" stroke-width=".05" fill="#3a414a"/><path d="M1409.82 371l-14.27 4.63v-9.26z" stroke="#3a414a" stroke-width="10" fill="#3a414a"/><path d="M1301 291h54a6 6 0 0 1 6 6v68a6 6 0 0 0 6 6h23.55" stroke="#3a414a" stroke-width="10" fill="none"/><path d="M1301.13 295.98h-5.28l.15-4.9v-.87l-.17-4.18h5.3z" stroke="#3a414a" stroke-width=".05" fill="#3a414a"/><path d="M1409.82 371l-14.27 4.63v-9.26z" stroke="#3a414a" stroke-width="10" fill="#3a414a"/><path d="M1301 451h54a6 6 0 0 0 6-6v-68a6 6 0 0 1 6-6h23.55" stroke="#3a414a" stroke-width="10" fill="none"/><path d="M1301.13 455.98h-5.28l.15-4.9v-.86l-.17-4.2h5.3z" stroke="#3a414a" stroke-width=".05" fill="#3a414a"/><path d="M1409.82 371l-14.27 4.63v-9.26z" stroke="#3a414a" stroke-width="10" fill="#3a414a"/><path d="M1301 611h54a6 6 0 0 0 6-6V377a6 6 0 0 1 6-6h23.55" stroke="#3a414a" stroke-width="10" fill="none"/><path d="M1301.13 615.98h-5.28l.15-4.9v-.87l-.17-4.18h5.3z" stroke="#3a414a" stroke-width=".05" fill="#3a414a"/><path d="M1409.82 371l-14.27 4.63v-9.26z" stroke="#3a414a" stroke-width="10" fill="#3a414a"/><path d="M1505.6 460.83V725a6 6 0 0 1-6 6H281.9a6 6 0 0 1-6-6V491.28" stroke="#3a414a" stroke-width="10" fill="none"/><path d="M1505.6 455.83l4.98.16v4.96h-9.95v-5.6z" stroke="#3a414a" stroke-width=".05" fill="#3a414a"/><path d="M275.9 472l4.64 14.28h-9.27z" stroke="#3a414a" stroke-width="10" fill="#3a414a"/><path d="M271 281V17a6 6 0 0 1 6-6h1228a6 6 0 0 1 6 6v233.55" stroke="#3a414a" stroke-width="10" fill="none"/><path d="M275.98 286.15l-4.9-.15h-.87l-4.17.17v-5.3h9.95z" stroke="#3a414a" stroke-width=".05" fill="#3a414a"/><path d="M1511 269.82l-4.63-14.27h9.27z" stroke="#3a414a" stroke-width="10" fill="#3a414a"/><path d="M1601 371h134.55" stroke="#3a414a" stroke-width="10" fill="none"/><path d="M1601.13 375.98h-5.28l.15-4.9v-.87l-.17-4.18h5.3z" stroke="#3a414a" stroke-width=".05" fill="#3a414a"/><path d="M1754.82 371l-14.27 4.63v-9.26z" stroke="#3a414a" stroke-width="10" fill="#3a414a"/><path d="M160.06 371H16" stroke="#3a414a" stroke-width="10" fill="none"/><path d="M176.18 371l-12.9 7.64v-15.28z" stroke="#3a414a" stroke-width="10" fill="#3a414a"/><path d="M16.13 371H11" stroke="#3a414a" stroke-width="10" fill="none"/></g></svg>